<?xml version="1.0" encoding="UTF-8" standalone="no"?>
<!-- Created with Inkscape (http://www.inkscape.org/) -->

<svg
   width="200mm"
   height="200mm"
   viewBox="0 0 200 200"
   version="1.1"
   id="svg5"
   inkscape:version="1.2.1 (9c6d41e410, 2022-07-14)"
   sodipodi:docname="main-logo.svg"
   xmlns:inkscape="http://www.inkscape.org/namespaces/inkscape"
   xmlns:sodipodi="http://sodipodi.sourceforge.net/DTD/sodipodi-0.dtd"
   xmlns="http://www.w3.org/2000/svg"
   xmlns:svg="http://www.w3.org/2000/svg">
  <sodipodi:namedview
     id="namedview7"
     pagecolor="#ffffff"
     bordercolor="#000000"
     borderopacity="0.25"
     inkscape:showpageshadow="2"
     inkscape:pageopacity="0.0"
     inkscape:pagecheckerboard="0"
     inkscape:deskcolor="#d1d1d1"
     inkscape:document-units="mm"
     showgrid="false"
     inkscape:zoom="1.0456808"
     inkscape:cx="94.197008"
     inkscape:cy="323.71256"
     inkscape:window-width="1920"
     inkscape:window-height="991"
     inkscape:window-x="-9"
     inkscape:window-y="-9"
     inkscape:window-maximized="1"
     inkscape:current-layer="layer1" />
  <defs
     id="defs2" />
  <g
     inkscape:groupmode="layer"
     id="layer2"
     inkscape:label="Layer 2" />
  <g
     inkscape:label="Layer 1"
     inkscape:groupmode="layer"
     id="layer1"
     transform="translate(-9.6148183,-26.721753)">
    <path
       id="rect950"
       style="fill:#333333;fill-opacity:1;stroke:none;stroke-width:1.09545;stroke-linecap:round;stroke-dasharray:none;stroke-opacity:1"
       d="M 23.807333,50.529216 V 200.52937 H 53.514648 L 57.919225,196.44934 53.807569,50.529216 H 31.881015 l -3.795375,-3.85863 z m 41.221256,0 V 200.52937 h 30.000236 v -0.0413 h 64.859615 l 5.19575,-4.06481 -4.13742,-24.77999 H 95.028825 V 50.529216 L 69.37265,46.503614 Z m 41.771101,0 V 159.03319 h 24.43571 v -0.0491 h 32.9675 v 0.0491 h 13.21521 l 16.91008,-14.31282 v -33.46359 h 0.10594 l -14.74587,-10.69599 9.05629,-7.388182 h -0.10593 V 66.74373 L 168.4135,50.529216 h -37.1781 l -20.08594,-3.936144 z m 24.43571,18.084167 h 27.43399 l 5.53351,4.532023 V 90.20173 l -4.41058,2.970878 H 131.2354 Z m 0,42.643397 h 33.18971 l 5.46737,4.04678 v 22.01261 l -4.41059,3.58376 H 131.2354 Z"
       sodipodi:nodetypes="ccccccccccccccccccccccccccccccccccccccccccccccccccc" />
    <path
       id="rect950-4"
       style="display:inline;fill:#9955ff;fill-opacity:1;stroke:none;stroke-width:1.09545;stroke-linecap:round;stroke-dasharray:none;stroke-opacity:1"
       d="M 27.995558,46.498136 V 196.49829 h 30.00023 V 46.498136 Z m 41.221252,0 V 196.49829 h 30.000236 v -0.0413 h 65.917934 v -28.8448 H 99.217046 V 46.498136 Z m 41.77109,0 V 155.00211 h 24.43571 v -0.0491 h 32.9675 v 0.0491 h 13.21521 L 198.5164,140.68929 V 107.2257 h 0.10594 l -14.74587,-10.695994 9.05629,-7.38818 h -0.10593 v -26.42888 l -20.22512,-16.21451 h -37.1781 z m 24.43571,18.08417 h 27.43399 l 5.53351,4.53202 v 17.05632 l -4.41058,2.97088 h -28.55692 z m 0,42.643394 h 33.18971 l 5.46737,4.04678 v 22.01261 l -4.41059,3.58376 h -34.24649 z" />
  </g>
</svg>
